HIERARCHY
ROOT SimulationBone
{
	OFFSET 0.000000 0.000000 0.000000
	CHANNELS 6 Xposition Yposition Zposition Zrotation Yrotation Xrotation 
	JOINT Hips
	{
		OFFSET 0.000000 0.000000 0.000000
		CHANNELS 6 Xposition Yposition Zposition Zrotation Yrotation Xrotation 
		JOINT LeftUpLeg
		{
			OFFSET 0.103462 1.857831 10.548502
			CHANNELS 3 Zrotation Yrotation Xrotation
			JOINT LeftLeg
			{
				OFFSET 43.500008 -0.000027 -0.000004
				CHANNELS 3 Zrotation Yrotation Xrotation
				JOINT LeftFoot
				{
					OFFSET 42.372200 0.000011 -0.000002
					CHANNELS 3 Zrotation Yrotation Xrotation
					JOINT LeftToe
					{
						OFFSET 17.299999 -0.000001 -0.000002
						CHANNELS 3 Zrotation Yrotation Xrotation
						End Site
						{
							OFFSET 0.000000 0.000000 0.000000
						}
					}
				}
			}
		}
		JOINT RightUpLeg
		{
			OFFSET 0.103458 1.857828 -10.548501
			CHANNELS 3 Zrotation Yrotation Xrotation
			JOINT RightLeg
			{
				OFFSET 43.500038 -0.000031 0.000011
				CHANNELS 3 Zrotation Yrotation Xrotation
				JOINT RightFoot
				{
					OFFSET 42.372257 -0.000004 0.000010
					CHANNELS 3 Zrotation Yrotation Xrotation
					JOINT RightToe
					{
						OFFSET 17.299994 -0.000005 0.000004
						CHANNELS 3 Zrotation Yrotation Xrotation
						End Site
						{
							OFFSET 0.000000 0.000000 0.000000
						}
					}
				}
			}
		}
		JOINT Spine
		{
			OFFSET 6.901966 -2.603733 0.000000
			CHANNELS 3 Zrotation Yrotation Xrotation
			JOINT Spine1
			{
				OFFSET 12.588101 0.000002 0.000000
				CHANNELS 3 Zrotation Yrotation Xrotation
				JOINT Spine2
				{
					OFFSET 12.343201 0.000004 -0.000002
					CHANNELS 3 Zrotation Yrotation Xrotation
					JOINT Neck
					{
						OFFSET 25.832895 -0.000004 0.000002
						CHANNELS 3 Zrotation Yrotation Xrotation
						JOINT Head
						{
							OFFSET 11.766604 0.000011 0.000001
							CHANNELS 3 Zrotation Yrotation Xrotation
							End Site
							{
								OFFSET 0.000000 0.000000 0.000000
							}
						}
					}
					JOINT LeftShoulder
					{
						OFFSET 19.745903 -1.480368 6.000108
						CHANNELS 3 Zrotation Yrotation Xrotation
						JOINT LeftArm
						{
							OFFSET 11.284126 -0.000007 -0.000022
							CHANNELS 3 Zrotation Yrotation Xrotation
							JOINT LeftForeArm
							{
								OFFSET 33.000053 0.000001 0.000028
								CHANNELS 3 Zrotation Yrotation Xrotation
								JOINT LeftHand
								{
									OFFSET 25.200005 0.000019 0.000013
									CHANNELS 3 Zrotation Yrotation Xrotation
									End Site
									{
										OFFSET 0.000000 0.000000 0.000000
									}
								}
							}
						}
					}
					JOINT RightShoulder
					{
						OFFSET 19.746094 -1.480373 -6.000072
						CHANNELS 3 Zrotation Yrotation Xrotation
						JOINT RightArm
						{
							OFFSET 11.284138 -0.000017 -0.000010
							CHANNELS 3 Zrotation Yrotation Xrotation
							JOINT RightForeArm
							{
								OFFSET 33.000092 0.000013 0.000009
								CHANNELS 3 Zrotation Yrotation Xrotation
								JOINT RightHand
								{
									OFFSET 25.199776 0.000139 0.000415
									CHANNELS 3 Zrotation Yrotation Xrotation
									End Site
									{
										OFFSET 0.000000 0.000000 0.000000
									}
								}
							}
						}
					}
				}
			}
		}
	}
}
MOTION
Frames: 11
Frame Time: 0.033333
-218.665856 0.000000 -126.605616 0.000000 269.647624 0.000000 1.900223 91.676048 -0.915653 96.211240 -1.125773 179.574950 -175.039867 0.456699 175.730741 -11.083513 -1.789075 -7.064542 74.806820 4.609398 -1.642717 21.454555 0.003097 0.000001 -175.144574 4.721294 -177.297982 -8.809613 4.876061 9.215245 75.090157 -5.958883 2.603342 21.454560 -0.003110 -0.000017 7.399738 0.135251 0.217413 4.787141 0.261419 0.440206 4.469050 0.264215 0.438620 3.167820 -6.095868 -4.404654 -15.312212 9.247078 -8.672806 -169.745405 -76.053091 -11.972192 -19.787113 63.952776 13.853822 -40.455794 -17.121194 1.608242 7.046213 0.458407 33.796285 -162.823964 69.438217 19.072607 -22.776475 -54.651895 -19.747286 -41.601149 17.440401 -1.688268 5.538372 -0.540380 -18.169555 
-218.402121 0.000000 -126.447809 0.000000 269.528427 0.000000 1.994930 91.693741 -0.856264 96.402806 -1.114986 179.440544 -174.306168 0.730507 176.737511 -10.333937 -1.775047 -7.819902 74.635792 5.102693 -1.787391 21.454551 0.003084 0.000000 -174.756619 4.864306 -177.576763 -8.640864 4.914951 9.232280 75.067679 -5.940791 2.723068 21.454557 -0.003112 -0.000017 7.365919 0.102992 0.235576 4.719397 0.196307 0.475122 4.401306 0.199318 0.473933 3.672335 -5.960009 -3.942410 -15.237397 8.780288 -7.983187 -168.880211 -75.792403 -12.856601 -19.314354 63.874133 15.258544 -38.571137 -16.854911 1.541693 7.442995 1.156963 34.513523 -162.729667 69.407795 19.170208 -22.734187 -54.523720 -21.097718 -38.662477 17.102398 -1.587651 6.600369 -0.686797 -19.426002 
-218.100762 0.000000 -126.277240 0.000000 269.204183 0.000000 2.057084 91.696419 -0.789014 96.568050 -1.114426 179.505685 -173.738771 1.088195 177.350930 -9.830600 -1.500274 -8.350914 74.556733 5.418727 -1.979481 21.454553 0.003094 -0.000001 -174.454971 5.020010 -177.907836 -8.572261 4.971048 9.265860 75.087992 -5.928906 2.862377 21.454562 -0.003095 -0.000017 7.340835 0.067216 0.262781 4.669122 0.123805 0.528020 4.351027 0.127124 0.527280 4.075588 -5.881231 -3.493025 -15.186591 8.317367 -7.324037 -167.956510 -75.524666 -13.801384 -18.862343 63.775430 16.680674 -36.312772 -16.378191 1.455022 7.859724 1.109493 35.202638 -162.418989 69.276403 19.492511 -21.945895 -54.512341 -22.075002 -36.373677 16.457150 -1.488750 7.360463 -0.568055 -20.440261 
-217.755764 0.000000 -126.100644 0.000000 268.698095 0.000000 2.091751 91.680428 -0.714377 96.635707 -1.119194 179.736665 -173.410553 1.320290 176.870863 -9.665195 -1.300234 -8.256484 74.676220 5.369510 -1.905651 21.454551 0.003090 -0.000002 -174.335005 5.197300 -178.161755 -8.652762 5.037991 9.231506 75.164449 -5.867975 3.004559 21.454558 -0.003095 -0.000016 7.306504 0.022377 0.299873 4.600226 0.032855 0.600376 4.282171 0.036624 0.600162 4.328025 -5.767448 -3.098880 -15.089140 7.908840 -6.739444 -167.030801 -75.291982 -14.749122 -18.159940 63.718903 17.951532 -34.081459 -15.653590 1.356671 8.437153 1.066159 35.710982 -161.750532 69.031964 20.185909 -20.425551 -54.603442 -23.413419 -34.994116 16.112870 -1.433908 8.036991 -0.515270 -20.864064 
-217.365715 0.000000 -125.921495 0.000000 268.045250 0.000000 2.120756 91.655960 -0.617811 96.627856 -1.092156 -179.846356 -173.284836 1.364101 176.542591 -9.768251 -1.407947 -8.223365 74.960008 5.403787 -1.707943 21.454550 0.003092 0.000001 -174.245694 5.327096 -178.306719 -8.659281 5.080935 9.155917 75.200936 -5.775444 3.152062 21.454555 -0.003116 -0.000018 7.260623 -0.017797 0.321744 4.508252 -0.048051 0.642537 4.190181 -0.044024 0.642825 4.461833 -5.703402 -2.740497 -14.904777 7.653635 -6.251028 -165.690212 -75.022340 -16.122192 -17.276473 63.645082 19.469369 -31.977648 -14.881049 1.261655 9.074095 0.956318 36.471083 -160.963626 68.760901 21.002294 -18.480813 -54.689420 -25.028625 -34.020482 15.774182 -1.389894 8.196583 -0.580106 -20.422805 
-216.932692 0.000000 -125.740900 0.000000 267.286488 0.000000 2.155309 91.634438 -0.513498 96.594279 -1.032715 -179.268734 -173.248445 1.406402 176.312946 -9.983836 -1.457146 -8.224925 75.286225 5.448455 -1.551840 21.454548 0.003086 -0.000001 -174.029231 5.418702 -178.431438 -8.376777 5.117865 9.114226 75.098340 -5.702159 3.310819 21.454555 -0.003118 -0.000019 7.212013 -0.048283 0.325707 4.410870 -0.108867 0.649350 4.092783 -0.104818 0.650000 4.603747 -5.745553 -2.451824 -14.854852 7.576627 -5.921495 -164.076293 -74.657827 -17.777210 -16.145437 63.499244 21.575646 -30.199671 -14.248473 1.185278 9.863290 0.908393 36.873814 -160.069909 68.475474 21.930108 -16.032320 -54.749120 -27.053650 -33.712024 15.558223 -1.369099 8.315085 -0.588839 -19.139460 
-216.461684 0.000000 -125.559976 0.000000 266.439653 0.000000 2.200203 91.618607 -0.431944 96.560977 -0.970860 -178.667503 -173.201563 1.584909 176.120061 -10.144830 -1.304876 -8.278318 75.557369 5.494295 -1.507670 21.454553 0.003082 0.000000 -173.788262 5.494513 -178.768781 -8.005057 5.081316 9.170109 74.931219 -5.670378 3.560063 21.454560 -0.003103 -0.000017 7.166553 -0.082238 0.348041 4.319709 -0.177336 0.692785 4.001647 -0.172999 0.693830 4.737446 -5.764943 -2.233543 -14.901270 7.563618 -5.691422 -162.677689 -74.323537 -19.212897 -14.624811 63.324835 23.958499 -28.980680 -13.619180 1.121735 10.286950 0.796730 37.794845 -159.024002 68.115776 23.017304 -13.320144 -54.676340 -29.309114 -33.913412 15.428313 -1.365204 8.348337 -0.653191 -18.264474 
-215.953465 0.000000 -125.384729 0.000000 265.516902 0.000000 2.252170 91.602859 -0.351176 96.545316 -0.920422 -178.123385 -173.038034 1.815199 176.058972 -10.129057 -1.195211 -8.500590 75.742816 5.675065 -1.408268 21.454551 0.003098 -0.000000 -173.608997 5.614193 -179.061264 -7.742371 5.028157 9.119687 74.788953 -5.562647 3.808055 21.454558 -0.003106 -0.000017 7.134337 -0.136767 0.402270 4.254829 -0.288143 0.799286 3.936758 -0.283174 0.801014 4.722257 -5.599419 -2.019909 -14.860332 7.489728 -5.420345 -161.421699 -74.091788 -20.502695 -12.925132 63.148610 26.365669 -28.491373 -13.126876 1.081115 10.950296 1.270795 39.213021 -157.833924 67.639937 24.257111 -10.842873 -54.470325 -31.586189 -34.206346 15.264549 -1.361203 8.198950 -0.613037 -17.449704 
-215.403535 0.000000 -125.217358 0.000000 264.546329 0.000000 2.310882 91.585152 -0.269785 96.551849 -0.868400 -177.609561 -172.783856 2.077180 175.983007 -9.976555 -1.105107 -8.763608 75.880909 5.901055 -1.247600 21.454551 0.003083 -0.000001 -173.470098 5.796700 -179.273628 -7.568689 5.026122 8.968639 74.671781 -5.392022 4.028094 21.454560 -0.003104 -0.000016 7.109352 -0.190552 0.438433 4.204361 -0.396807 0.869700 3.886295 -0.391404 0.872091 4.702587 -5.462244 -1.736526 -14.819250 7.423711 -5.083961 -159.930997 -73.698397 -22.036210 -11.176927 62.908399 29.126191 -28.166191 -12.845367 1.057161 11.282708 1.173439 38.641870 -156.948923 67.364715 25.178493 -8.793238 -54.358532 -34.038541 -34.334907 15.238917 -1.362443 8.246116 -0.570596 -16.365424 
-214.805150 0.000000 -125.056032 0.000000 263.556312 0.000000 2.369935 91.568542 -0.206426 96.579912 -0.823498 -177.127207 -172.441376 2.412795 175.816186 -9.671521 -0.980034 -8.992016 75.967775 6.105454 -1.072453 21.454555 0.003102 0.000000 -173.359900 6.038695 -179.364674 -7.462070 5.014661 8.712209 74.554664 -5.141153 4.263947 21.454558 -0.003104 -0.000017 7.086250 -0.247992 0.471238 4.157607 -0.512630 0.933372 3.839551 -0.506853 0.936446 4.810629 -5.260090 -1.425755 -14.846724 7.345955 -4.705876 -158.671920 -73.297526 -23.334114 -9.318685 62.724981 31.750882 -28.338894 -12.887027 1.062926 12.218984 1.321405 34.478559 -156.413094 67.158095 25.737469 -7.074750 -54.292784 -35.990490 -34.228028 15.053833 -1.348096 8.124530 -0.473122 -16.099072 
-214.154732 0.000000 -124.899190 0.000000 262.618496 0.000000 2.433434 91.554108 -0.132467 96.621476 -0.782450 -176.672197 -172.010446 2.793508 175.938310 -9.184205 -0.888535 -9.385064 75.970992 6.426510 -0.894775 21.454553 0.003103 0.000000 -173.226097 6.300712 -179.448877 -7.319627 4.976186 8.470243 74.406039 -4.885256 4.546568 21.454560 -0.003117 -0.000017 7.063917 -0.313134 0.496567 4.112283 -0.643577 0.981812 3.794211 -0.637488 0.985685 4.926723 -4.993268 -1.157585 -14.808161 7.207531 -4.337251 -157.605399 -72.934099 -24.434995 -7.702688 62.613369 32.715998 -28.596552 -12.505293 1.042952 12.254625 1.193650 30.215988 -156.074208 66.921818 26.093425 -5.715620 -54.229209 -37.586097 -33.993807 14.763558 -1.324114 8.117030 -0.206595 -15.931809 
